<?xml version="1.0" standalone="no"?>
<!DOCTYPE svg PUBLIC "-//W3C//DTD SVG 20010904//EN"
 "http://www.w3.org/TR/2001/REC-SVG-20010904/DTD/svg10.dtd">
<svg version="1.0" xmlns="http://www.w3.org/2000/svg"
 width="1024.000000pt" height="1024.000000pt" viewBox="0 0 1024.000000 1024.000000"
 preserveAspectRatio="xMidYMid meet">
<metadata>
Created by potrace 1.14, written by Peter Selinger 2001-2017
</metadata>
<g transform="translate(0.000000,1024.000000) scale(0.100000,-0.100000)"
fill="#000000" stroke="none">
<path d="M2630 8970 c-47 -4 -95 -12 -107 -18 -12 -7 -36 -12 -53 -12 -32 0
-65 -13 -88 -37 -7 -7 -19 -13 -26 -13 -7 0 -23 -9 -36 -20 -13 -11 -34 -20
-47 -20 -12 0 -23 -4 -23 -10 0 -5 -29 -28 -65 -51 -36 -22 -65 -44 -65 -47 0
-4 -20 -27 -45 -52 -24 -25 -44 -50 -45 -57 0 -7 -9 -17 -20 -23 -11 -6 -20
-17 -20 -25 0 -8 -9 -19 -20 -25 -11 -6 -20 -16 -20 -22 0 -7 -10 -21 -23 -33
-13 -11 -34 -51 -47 -90 -13 -38 -31 -88 -41 -110 -9 -22 -21 -56 -25 -75 -4
-19 -9 -279 -11 -577 l-3 -543 137 0 c76 -1 185 -5 243 -10 72 -6 109 -5 118
2 9 8 16 8 24 0 15 -15 80 -16 95 -1 8 8 16 7 30 -2 16 -9 30 -9 66 -1 40 10
59 9 146 -12 54 -13 120 -33 145 -44 46 -21 136 -105 136 -129 0 -7 4 -13 10
-13 19 0 57 -96 80 -200 l23 -106 -24 -104 c-44 -191 -127 -284 -334 -375 -47
-21 -297 -33 -667 -34 l-228 -1 0 -215 0 -215 28 -1 c15 0 228 -4 475 -8 l447
-8 70 -47 c38 -26 72 -55 75 -65 3 -9 21 -35 41 -56 51 -56 68 -95 94 -217
l24 -107 -27 -106 c-55 -215 -182 -340 -391 -385 -29 -6 -222 -14 -443 -17
l-393 -6 0 -197 0 -197 173 -6 c94 -4 276 -7 403 -7 216 0 236 -2 306 -24 99
-31 192 -92 228 -149 15 -25 33 -48 39 -51 17 -11 68 -128 82 -191 28 -123 3
-277 -62 -374 -41 -61 -115 -141 -130 -141 -5 0 -18 -9 -29 -20 -11 -11 -28
-20 -38 -20 -10 0 -26 -6 -37 -14 -11 -7 -47 -19 -80 -26 -33 -6 -80 -16 -104
-21 -24 -6 -203 -13 -397 -16 l-354 -6 3 -566 c2 -311 7 -582 11 -601 4 -19
14 -50 22 -68 19 -40 53 -138 61 -171 3 -14 23 -41 43 -61 21 -20 41 -47 45
-58 3 -12 10 -22 16 -22 5 0 19 -17 33 -38 37 -59 122 -139 160 -152 23 -7 39
-21 48 -41 9 -22 24 -32 52 -40 22 -6 60 -21 85 -34 67 -33 122 -45 257 -56
69 -5 654 -8 1365 -7 l1244 3 11 40 c6 22 16 53 22 68 7 16 12 32 12 38 0 5 8
35 19 66 39 121 101 321 126 405 66 227 77 265 89 293 8 17 16 46 20 65 4 19
13 51 21 70 7 19 26 76 40 125 15 50 33 108 40 130 8 22 26 81 40 130 15 50
45 149 67 220 60 197 74 242 103 340 14 50 32 104 39 120 8 17 16 46 20 65 4
19 13 51 21 70 7 19 26 76 40 125 15 50 33 106 40 125 8 19 16 52 20 72 5 33
3 38 -17 42 -13 3 -482 7 -1043 10 -959 6 -1023 7 -1070 24 -109 41 -162 96
-197 208 l-20 64 22 93 c12 50 28 110 36 132 7 22 20 65 28 95 8 30 36 125 61
210 25 85 51 173 56 195 5 22 16 58 24 80 7 22 26 81 40 130 15 50 31 101 36
114 6 13 16 51 24 85 7 34 20 81 29 106 8 25 23 77 35 115 11 39 32 111 46
160 14 50 35 122 46 160 11 39 24 84 30 100 6 17 17 53 24 80 8 28 23 82 35
120 46 147 62 202 80 272 10 40 22 78 26 84 4 7 13 36 20 63 8 28 25 92 40
141 14 50 34 122 44 162 10 40 22 78 26 84 4 7 13 36 20 63 7 28 22 80 33 116
62 200 66 212 120 405 11 39 30 102 42 140 12 39 32 108 45 155 53 193 77 274
105 355 6 17 17 53 24 80 25 91 54 189 75 257 48 155 63 207 86 288 43 149 44
154 31 162 -15 9 -2329 8 -2447 -2z"/>
<path d="M8116 8797 c-8 -12 -19 -42 -26 -67 -6 -25 -17 -61 -25 -80 -14 -36
-36 -101 -60 -180 -27 -86 -47 -145 -60 -175 -13 -29 -30 -78 -60 -175 -23
-75 -46 -143 -60 -180 -8 -19 -28 -82 -45 -140 -18 -58 -38 -121 -45 -140 -18
-46 -43 -124 -59 -182 -8 -25 -17 -52 -21 -58 -4 -6 -13 -33 -21 -58 -7 -26
-25 -78 -39 -117 -15 -38 -33 -90 -40 -115 -21 -70 -45 -142 -60 -180 -8 -19
-28 -82 -45 -140 -18 -58 -38 -121 -45 -140 -14 -38 -38 -108 -60 -180 -29
-93 -44 -137 -100 -290 -24 -65 -45 -139 -45 -159 l0 -21 690 0 690 0 -4 1048
c-2 576 -7 1072 -11 1102 -3 30 -15 74 -26 97 -10 24 -19 52 -19 62 0 11 -4
22 -9 25 -4 3 -16 30 -25 61 -10 30 -22 55 -27 55 -5 0 -19 19 -30 43 -37 77
-44 87 -61 93 -10 3 -18 9 -18 14 0 12 -67 80 -79 80 -5 0 -12 13 -16 28 -4
22 -20 36 -65 60 l-60 31 -14 -22z"/>
<path d="M1441 6816 c-7 -9 -19 -16 -27 -16 -7 0 -28 -21 -46 -47 -31 -45 -33
-54 -36 -144 -4 -89 -2 -100 22 -137 31 -49 83 -90 133 -105 25 -7 212 -12
548 -14 500 -4 511 -3 578 18 51 16 71 28 82 48 7 14 27 41 44 60 30 33 31 38
31 123 0 77 -3 90 -21 106 -11 9 -27 32 -36 49 -31 66 -15 65 -668 70 -539 5
-591 4 -604 -11z"/>
<path d="M1520 5370 c-14 -4 -41 -8 -61 -9 -26 -1 -43 -9 -65 -33 -53 -59 -64
-89 -64 -177 0 -70 4 -87 25 -121 14 -22 25 -44 25 -49 0 -5 10 -13 23 -17 12
-3 30 -15 40 -25 18 -19 40 -19 603 -17 545 3 586 4 595 21 6 9 18 17 29 17
20 0 60 44 60 66 0 7 9 18 21 25 19 10 21 18 17 102 -3 90 -4 93 -41 132 -20
22 -37 45 -37 52 0 6 -14 19 -32 27 -27 14 -99 16 -572 15 -298 -1 -552 -5
-566 -9z"/>
<path d="M8534 3939 c-16 -22 -51 -68 -77 -102 -26 -34 -56 -73 -67 -87 -10
-14 -52 -66 -92 -117 -40 -50 -102 -130 -138 -177 -36 -48 -94 -124 -130 -169
-36 -45 -74 -94 -85 -109 -11 -14 -49 -63 -85 -108 -36 -45 -74 -94 -85 -108
-52 -69 -106 -139 -124 -162 -11 -14 -51 -63 -88 -110 -38 -47 -102 -130 -143
-185 -41 -55 -101 -134 -135 -175 -33 -41 -69 -87 -80 -102 -46 -62 -182 -237
-227 -293 -26 -33 -56 -71 -67 -85 -11 -14 -42 -52 -68 -85 -27 -33 -60 -76
-73 -95 -23 -33 -84 -111 -200 -257 -28 -35 -50 -67 -50 -72 0 -6 -8 -16 -18
-23 -23 -16 -44 -53 -35 -62 10 -9 1183 -6 1303 4 90 7 120 15 211 52 71 29
117 55 142 80 19 20 49 39 65 43 34 7 72 39 72 60 0 8 4 15 8 15 16 0 70 55
73 75 2 11 14 25 27 30 13 6 36 35 53 70 17 33 37 71 44 85 22 40 51 112 59
145 4 17 14 37 21 45 7 8 16 44 20 80 10 96 17 1940 7 1940 -4 0 -21 -18 -38
-41z"/>
<path d="M1445 3927 c-91 -67 -115 -117 -115 -235 1 -114 22 -154 106 -199
l59 -32 550 0 550 0 59 32 c46 25 62 40 71 66 6 18 18 37 28 42 14 8 17 25 17
95 0 65 -3 86 -15 90 -8 3 -19 21 -25 40 -6 19 -15 34 -20 34 -5 0 -11 8 -14
18 -3 10 -30 31 -60 46 -42 22 -62 27 -88 22 -18 -3 -39 -6 -45 -5 -7 0 -33 1
-58 0 -64 0 -80 0 -125 0 -45 0 -61 0 -125 0 -25 1 -52 1 -60 1 -8 0 -35 0
-60 0 -25 0 -52 0 -60 0 -8 0 -35 0 -60 -1 -68 0 -82 0 -125 0 -22 0 -56 0
-75 0 -35 0 -83 0 -107 0 -7 0 -49 2 -93 4 -70 4 -84 1 -110 -18z"/>
</g>
</svg>
